G75*
%MOIN*%
%OFA0B0*%
%FSLAX25Y25*%
%IPPOS*%
%LPD*%
%AMOC8*
5,1,8,0,0,1.08239X$1,22.5*
%
%ADD10C,0.14580*%
%ADD11OC8,0.07400*%
%ADD12R,0.08477X0.08477*%
%ADD13C,0.08477*%
%ADD14C,0.06312*%
%ADD15C,0.00039*%
D10*
X0039346Y0028894D03*
X0062575Y0028894D03*
X0050764Y0010390D03*
D11*
X0031000Y0066000D03*
X0021000Y0066000D03*
D12*
X0092378Y0045843D03*
D13*
X0092378Y0026157D03*
X0139622Y0026157D03*
X0139622Y0045843D03*
D14*
X0116000Y0053717D03*
X0116000Y0018283D03*
D15*
X0104241Y0083693D02*
X0104636Y0083799D01*
X0105006Y0083971D01*
X0105341Y0084206D01*
X0105629Y0084494D01*
X0105863Y0084829D01*
X0106036Y0085199D01*
X0106142Y0085593D01*
X0106177Y0086000D01*
X0106142Y0086407D01*
X0106036Y0086801D01*
X0105863Y0087171D01*
X0105629Y0087506D01*
X0105341Y0087794D01*
X0105006Y0088029D01*
X0104636Y0088201D01*
X0104241Y0088307D01*
X0103835Y0088343D01*
X0103428Y0088307D01*
X0103033Y0088201D01*
X0102663Y0088029D01*
X0102329Y0087794D01*
X0102040Y0087506D01*
X0101806Y0087171D01*
X0101633Y0086801D01*
X0101528Y0086407D01*
X0101492Y0086000D01*
X0101528Y0085593D01*
X0101633Y0085199D01*
X0101806Y0084829D01*
X0102040Y0084494D01*
X0102329Y0084206D01*
X0102663Y0083971D01*
X0103033Y0083799D01*
X0103428Y0083693D01*
X0103835Y0083657D01*
X0104241Y0083693D01*
X0104249Y0083695D02*
X0103420Y0083695D01*
X0103279Y0083733D02*
X0104391Y0083733D01*
X0104532Y0083771D02*
X0103138Y0083771D01*
X0103012Y0083809D02*
X0104657Y0083809D01*
X0104738Y0083847D02*
X0102931Y0083847D01*
X0102850Y0083884D02*
X0104820Y0083884D01*
X0104901Y0083922D02*
X0102768Y0083922D01*
X0102687Y0083960D02*
X0104982Y0083960D01*
X0105044Y0083998D02*
X0102625Y0083998D01*
X0102571Y0084036D02*
X0105098Y0084036D01*
X0105153Y0084074D02*
X0102517Y0084074D01*
X0102463Y0084112D02*
X0105207Y0084112D01*
X0105261Y0084150D02*
X0102409Y0084150D01*
X0102354Y0084188D02*
X0105315Y0084188D01*
X0105360Y0084225D02*
X0102309Y0084225D01*
X0102271Y0084263D02*
X0105398Y0084263D01*
X0105436Y0084301D02*
X0102233Y0084301D01*
X0102195Y0084339D02*
X0105474Y0084339D01*
X0105512Y0084377D02*
X0102157Y0084377D01*
X0102119Y0084415D02*
X0105550Y0084415D01*
X0105588Y0084453D02*
X0102082Y0084453D01*
X0102044Y0084491D02*
X0105626Y0084491D01*
X0105653Y0084528D02*
X0102016Y0084528D01*
X0101990Y0084566D02*
X0105680Y0084566D01*
X0105706Y0084604D02*
X0101963Y0084604D01*
X0101937Y0084642D02*
X0105733Y0084642D01*
X0105759Y0084680D02*
X0101910Y0084680D01*
X0101884Y0084718D02*
X0105786Y0084718D01*
X0105812Y0084756D02*
X0101857Y0084756D01*
X0101830Y0084794D02*
X0105839Y0084794D01*
X0105865Y0084832D02*
X0101805Y0084832D01*
X0101787Y0084869D02*
X0105882Y0084869D01*
X0105900Y0084907D02*
X0101769Y0084907D01*
X0101752Y0084945D02*
X0105918Y0084945D01*
X0105935Y0084983D02*
X0101734Y0084983D01*
X0101716Y0085021D02*
X0105953Y0085021D01*
X0105971Y0085059D02*
X0101699Y0085059D01*
X0101681Y0085097D02*
X0105988Y0085097D01*
X0106006Y0085135D02*
X0101663Y0085135D01*
X0101646Y0085172D02*
X0106024Y0085172D01*
X0106039Y0085210D02*
X0101630Y0085210D01*
X0101620Y0085248D02*
X0106049Y0085248D01*
X0106059Y0085286D02*
X0101610Y0085286D01*
X0101600Y0085324D02*
X0106069Y0085324D01*
X0106080Y0085362D02*
X0101590Y0085362D01*
X0101580Y0085400D02*
X0106090Y0085400D01*
X0106100Y0085438D02*
X0101569Y0085438D01*
X0101559Y0085476D02*
X0106110Y0085476D01*
X0106120Y0085513D02*
X0101549Y0085513D01*
X0101539Y0085551D02*
X0106130Y0085551D01*
X0106141Y0085589D02*
X0101529Y0085589D01*
X0101525Y0085627D02*
X0106145Y0085627D01*
X0106148Y0085665D02*
X0101521Y0085665D01*
X0101518Y0085703D02*
X0106151Y0085703D01*
X0106155Y0085741D02*
X0101515Y0085741D01*
X0101511Y0085779D02*
X0106158Y0085779D01*
X0106161Y0085816D02*
X0101508Y0085816D01*
X0101505Y0085854D02*
X0106164Y0085854D01*
X0106168Y0085892D02*
X0101502Y0085892D01*
X0101498Y0085930D02*
X0106171Y0085930D01*
X0106174Y0085968D02*
X0101495Y0085968D01*
X0101493Y0086006D02*
X0106177Y0086006D01*
X0106173Y0086044D02*
X0101496Y0086044D01*
X0101499Y0086082D02*
X0106170Y0086082D01*
X0106167Y0086120D02*
X0101503Y0086120D01*
X0101506Y0086157D02*
X0106163Y0086157D01*
X0106160Y0086195D02*
X0101509Y0086195D01*
X0101512Y0086233D02*
X0106157Y0086233D01*
X0106154Y0086271D02*
X0101516Y0086271D01*
X0101519Y0086309D02*
X0106150Y0086309D01*
X0106147Y0086347D02*
X0101522Y0086347D01*
X0101526Y0086385D02*
X0106144Y0086385D01*
X0106137Y0086423D02*
X0101532Y0086423D01*
X0101542Y0086460D02*
X0106127Y0086460D01*
X0106117Y0086498D02*
X0101552Y0086498D01*
X0101562Y0086536D02*
X0106107Y0086536D01*
X0106097Y0086574D02*
X0101573Y0086574D01*
X0101583Y0086612D02*
X0106087Y0086612D01*
X0106076Y0086650D02*
X0101593Y0086650D01*
X0101603Y0086688D02*
X0106066Y0086688D01*
X0106056Y0086726D02*
X0101613Y0086726D01*
X0101623Y0086763D02*
X0106046Y0086763D01*
X0106036Y0086801D02*
X0101634Y0086801D01*
X0101651Y0086839D02*
X0106018Y0086839D01*
X0106000Y0086877D02*
X0101669Y0086877D01*
X0101687Y0086915D02*
X0105983Y0086915D01*
X0105965Y0086953D02*
X0101704Y0086953D01*
X0101722Y0086991D02*
X0105947Y0086991D01*
X0105930Y0087029D02*
X0101739Y0087029D01*
X0101757Y0087067D02*
X0105912Y0087067D01*
X0105895Y0087104D02*
X0101775Y0087104D01*
X0101792Y0087142D02*
X0105877Y0087142D01*
X0105857Y0087180D02*
X0101812Y0087180D01*
X0101839Y0087218D02*
X0105831Y0087218D01*
X0105804Y0087256D02*
X0101865Y0087256D01*
X0101892Y0087294D02*
X0105778Y0087294D01*
X0105751Y0087332D02*
X0101918Y0087332D01*
X0101945Y0087370D02*
X0105725Y0087370D01*
X0105698Y0087407D02*
X0101971Y0087407D01*
X0101998Y0087445D02*
X0105672Y0087445D01*
X0105645Y0087483D02*
X0102024Y0087483D01*
X0102055Y0087521D02*
X0105614Y0087521D01*
X0105576Y0087559D02*
X0102093Y0087559D01*
X0102131Y0087597D02*
X0105538Y0087597D01*
X0105500Y0087635D02*
X0102169Y0087635D01*
X0102207Y0087673D02*
X0105462Y0087673D01*
X0105425Y0087711D02*
X0102245Y0087711D01*
X0102283Y0087748D02*
X0105387Y0087748D01*
X0105349Y0087786D02*
X0102321Y0087786D01*
X0102371Y0087824D02*
X0105298Y0087824D01*
X0105244Y0087862D02*
X0102425Y0087862D01*
X0102479Y0087900D02*
X0105190Y0087900D01*
X0105136Y0087938D02*
X0102533Y0087938D01*
X0102588Y0087976D02*
X0105082Y0087976D01*
X0105028Y0088014D02*
X0102642Y0088014D01*
X0102712Y0088051D02*
X0104957Y0088051D01*
X0104876Y0088089D02*
X0102793Y0088089D01*
X0102875Y0088127D02*
X0104795Y0088127D01*
X0104713Y0088165D02*
X0102956Y0088165D01*
X0103040Y0088203D02*
X0104629Y0088203D01*
X0104488Y0088241D02*
X0103181Y0088241D01*
X0103322Y0088279D02*
X0104347Y0088279D01*
X0104132Y0088317D02*
X0103537Y0088317D01*
X0060508Y0086000D02*
X0060472Y0085593D01*
X0060367Y0085199D01*
X0060194Y0084829D01*
X0059960Y0084494D01*
X0059671Y0084206D01*
X0059337Y0083971D01*
X0058967Y0083799D01*
X0058572Y0083693D01*
X0058165Y0083657D01*
X0057759Y0083693D01*
X0057364Y0083799D01*
X0056994Y0083971D01*
X0056659Y0084206D01*
X0056371Y0084494D01*
X0056137Y0084829D01*
X0055964Y0085199D01*
X0055858Y0085593D01*
X0055823Y0086000D01*
X0055858Y0086407D01*
X0055964Y0086801D01*
X0056137Y0087171D01*
X0056371Y0087506D01*
X0056659Y0087794D01*
X0056994Y0088029D01*
X0057364Y0088201D01*
X0057759Y0088307D01*
X0058165Y0088343D01*
X0058572Y0088307D01*
X0058967Y0088201D01*
X0059337Y0088029D01*
X0059671Y0087794D01*
X0059960Y0087506D01*
X0060194Y0087171D01*
X0060367Y0086801D01*
X0060472Y0086407D01*
X0060508Y0086000D01*
X0060507Y0086006D02*
X0055823Y0086006D01*
X0055827Y0086044D02*
X0060504Y0086044D01*
X0060501Y0086082D02*
X0055830Y0086082D01*
X0055833Y0086120D02*
X0060497Y0086120D01*
X0060494Y0086157D02*
X0055837Y0086157D01*
X0055840Y0086195D02*
X0060491Y0086195D01*
X0060488Y0086233D02*
X0055843Y0086233D01*
X0055846Y0086271D02*
X0060484Y0086271D01*
X0060481Y0086309D02*
X0055850Y0086309D01*
X0055853Y0086347D02*
X0060478Y0086347D01*
X0060474Y0086385D02*
X0055856Y0086385D01*
X0055863Y0086423D02*
X0060468Y0086423D01*
X0060458Y0086460D02*
X0055873Y0086460D01*
X0055883Y0086498D02*
X0060448Y0086498D01*
X0060438Y0086536D02*
X0055893Y0086536D01*
X0055903Y0086574D02*
X0060428Y0086574D01*
X0060417Y0086612D02*
X0055913Y0086612D01*
X0055924Y0086650D02*
X0060407Y0086650D01*
X0060397Y0086688D02*
X0055934Y0086688D01*
X0055944Y0086726D02*
X0060387Y0086726D01*
X0060377Y0086763D02*
X0055954Y0086763D01*
X0055964Y0086801D02*
X0060366Y0086801D01*
X0060349Y0086839D02*
X0055982Y0086839D01*
X0056000Y0086877D02*
X0060331Y0086877D01*
X0060313Y0086915D02*
X0056017Y0086915D01*
X0056035Y0086953D02*
X0060296Y0086953D01*
X0060278Y0086991D02*
X0056053Y0086991D01*
X0056070Y0087029D02*
X0060261Y0087029D01*
X0060243Y0087067D02*
X0056088Y0087067D01*
X0056105Y0087104D02*
X0060225Y0087104D01*
X0060208Y0087142D02*
X0056123Y0087142D01*
X0056143Y0087180D02*
X0060188Y0087180D01*
X0060161Y0087218D02*
X0056169Y0087218D01*
X0056196Y0087256D02*
X0060135Y0087256D01*
X0060108Y0087294D02*
X0056222Y0087294D01*
X0056249Y0087332D02*
X0060082Y0087332D01*
X0060055Y0087370D02*
X0056275Y0087370D01*
X0056302Y0087407D02*
X0060029Y0087407D01*
X0060002Y0087445D02*
X0056328Y0087445D01*
X0056355Y0087483D02*
X0059976Y0087483D01*
X0059945Y0087521D02*
X0056386Y0087521D01*
X0056424Y0087559D02*
X0059907Y0087559D01*
X0059869Y0087597D02*
X0056462Y0087597D01*
X0056500Y0087635D02*
X0059831Y0087635D01*
X0059793Y0087673D02*
X0056538Y0087673D01*
X0056575Y0087711D02*
X0059755Y0087711D01*
X0059717Y0087748D02*
X0056613Y0087748D01*
X0056651Y0087786D02*
X0059679Y0087786D01*
X0059629Y0087824D02*
X0056702Y0087824D01*
X0056756Y0087862D02*
X0059575Y0087862D01*
X0059521Y0087900D02*
X0056810Y0087900D01*
X0056864Y0087938D02*
X0059467Y0087938D01*
X0059412Y0087976D02*
X0056918Y0087976D01*
X0056972Y0088014D02*
X0059358Y0088014D01*
X0059288Y0088051D02*
X0057043Y0088051D01*
X0057124Y0088089D02*
X0059207Y0088089D01*
X0059125Y0088127D02*
X0057205Y0088127D01*
X0057287Y0088165D02*
X0059044Y0088165D01*
X0058960Y0088203D02*
X0057371Y0088203D01*
X0057512Y0088241D02*
X0058819Y0088241D01*
X0058678Y0088279D02*
X0057653Y0088279D01*
X0057868Y0088317D02*
X0058463Y0088317D01*
X0060505Y0085968D02*
X0055826Y0085968D01*
X0055829Y0085930D02*
X0060502Y0085930D01*
X0060498Y0085892D02*
X0055832Y0085892D01*
X0055836Y0085854D02*
X0060495Y0085854D01*
X0060492Y0085816D02*
X0055839Y0085816D01*
X0055842Y0085779D02*
X0060489Y0085779D01*
X0060485Y0085741D02*
X0055845Y0085741D01*
X0055849Y0085703D02*
X0060482Y0085703D01*
X0060479Y0085665D02*
X0055852Y0085665D01*
X0055855Y0085627D02*
X0060475Y0085627D01*
X0060471Y0085589D02*
X0055859Y0085589D01*
X0055870Y0085551D02*
X0060461Y0085551D01*
X0060451Y0085513D02*
X0055880Y0085513D01*
X0055890Y0085476D02*
X0060441Y0085476D01*
X0060431Y0085438D02*
X0055900Y0085438D01*
X0055910Y0085400D02*
X0060420Y0085400D01*
X0060410Y0085362D02*
X0055920Y0085362D01*
X0055931Y0085324D02*
X0060400Y0085324D01*
X0060390Y0085286D02*
X0055941Y0085286D01*
X0055951Y0085248D02*
X0060380Y0085248D01*
X0060370Y0085210D02*
X0055961Y0085210D01*
X0055976Y0085172D02*
X0060354Y0085172D01*
X0060337Y0085135D02*
X0055994Y0085135D01*
X0056012Y0085097D02*
X0060319Y0085097D01*
X0060301Y0085059D02*
X0056029Y0085059D01*
X0056047Y0085021D02*
X0060284Y0085021D01*
X0060266Y0084983D02*
X0056065Y0084983D01*
X0056082Y0084945D02*
X0060248Y0084945D01*
X0060231Y0084907D02*
X0056100Y0084907D01*
X0056118Y0084869D02*
X0060213Y0084869D01*
X0060195Y0084832D02*
X0056135Y0084832D01*
X0056161Y0084794D02*
X0060170Y0084794D01*
X0060143Y0084756D02*
X0056188Y0084756D01*
X0056214Y0084718D02*
X0060116Y0084718D01*
X0060090Y0084680D02*
X0056241Y0084680D01*
X0056267Y0084642D02*
X0060063Y0084642D01*
X0060037Y0084604D02*
X0056294Y0084604D01*
X0056320Y0084566D02*
X0060010Y0084566D01*
X0059984Y0084528D02*
X0056347Y0084528D01*
X0056374Y0084491D02*
X0059956Y0084491D01*
X0059918Y0084453D02*
X0056412Y0084453D01*
X0056450Y0084415D02*
X0059881Y0084415D01*
X0059843Y0084377D02*
X0056488Y0084377D01*
X0056526Y0084339D02*
X0059805Y0084339D01*
X0059767Y0084301D02*
X0056564Y0084301D01*
X0056602Y0084263D02*
X0059729Y0084263D01*
X0059691Y0084225D02*
X0056640Y0084225D01*
X0056685Y0084188D02*
X0059646Y0084188D01*
X0059591Y0084150D02*
X0056739Y0084150D01*
X0056793Y0084112D02*
X0059537Y0084112D01*
X0059483Y0084074D02*
X0056847Y0084074D01*
X0056902Y0084036D02*
X0059429Y0084036D01*
X0059375Y0083998D02*
X0056956Y0083998D01*
X0057018Y0083960D02*
X0059313Y0083960D01*
X0059232Y0083922D02*
X0057099Y0083922D01*
X0057180Y0083884D02*
X0059150Y0083884D01*
X0059069Y0083847D02*
X0057262Y0083847D01*
X0057343Y0083809D02*
X0058988Y0083809D01*
X0058862Y0083771D02*
X0057468Y0083771D01*
X0057609Y0083733D02*
X0058721Y0083733D01*
X0058580Y0083695D02*
X0057751Y0083695D01*
M02*
