G75*
%MOIN*%
%OFA0B0*%
%FSLAX25Y25*%
%IPPOS*%
%LPD*%
%AMOC8*
5,1,8,0,0,1.08239X$1,22.5*
%
%ADD10C,0.00000*%
D10*
X0001000Y0001000D02*
X0001000Y0100961D01*
X0154701Y0100961D01*
X0154701Y0001000D01*
X0001000Y0001000D01*
X0113244Y0018283D02*
X0113246Y0018388D01*
X0113252Y0018493D01*
X0113262Y0018597D01*
X0113276Y0018701D01*
X0113294Y0018805D01*
X0113316Y0018907D01*
X0113341Y0019009D01*
X0113371Y0019110D01*
X0113404Y0019209D01*
X0113441Y0019307D01*
X0113482Y0019404D01*
X0113527Y0019499D01*
X0113575Y0019592D01*
X0113626Y0019684D01*
X0113682Y0019773D01*
X0113740Y0019860D01*
X0113802Y0019945D01*
X0113866Y0020028D01*
X0113934Y0020108D01*
X0114005Y0020185D01*
X0114079Y0020259D01*
X0114156Y0020331D01*
X0114235Y0020400D01*
X0114317Y0020465D01*
X0114401Y0020528D01*
X0114488Y0020587D01*
X0114577Y0020643D01*
X0114668Y0020696D01*
X0114761Y0020745D01*
X0114855Y0020790D01*
X0114951Y0020832D01*
X0115049Y0020870D01*
X0115148Y0020904D01*
X0115249Y0020935D01*
X0115350Y0020961D01*
X0115453Y0020984D01*
X0115556Y0021003D01*
X0115660Y0021018D01*
X0115764Y0021029D01*
X0115869Y0021036D01*
X0115974Y0021039D01*
X0116079Y0021038D01*
X0116184Y0021033D01*
X0116288Y0021024D01*
X0116392Y0021011D01*
X0116496Y0020994D01*
X0116599Y0020973D01*
X0116701Y0020948D01*
X0116802Y0020920D01*
X0116901Y0020887D01*
X0117000Y0020851D01*
X0117097Y0020811D01*
X0117192Y0020768D01*
X0117286Y0020720D01*
X0117378Y0020670D01*
X0117468Y0020616D01*
X0117556Y0020558D01*
X0117641Y0020497D01*
X0117724Y0020433D01*
X0117805Y0020366D01*
X0117883Y0020296D01*
X0117958Y0020222D01*
X0118030Y0020147D01*
X0118100Y0020068D01*
X0118166Y0019987D01*
X0118230Y0019903D01*
X0118290Y0019817D01*
X0118346Y0019729D01*
X0118400Y0019638D01*
X0118450Y0019546D01*
X0118496Y0019452D01*
X0118539Y0019356D01*
X0118578Y0019258D01*
X0118613Y0019160D01*
X0118644Y0019059D01*
X0118672Y0018958D01*
X0118696Y0018856D01*
X0118716Y0018753D01*
X0118732Y0018649D01*
X0118744Y0018545D01*
X0118752Y0018440D01*
X0118756Y0018335D01*
X0118756Y0018231D01*
X0118752Y0018126D01*
X0118744Y0018021D01*
X0118732Y0017917D01*
X0118716Y0017813D01*
X0118696Y0017710D01*
X0118672Y0017608D01*
X0118644Y0017507D01*
X0118613Y0017406D01*
X0118578Y0017308D01*
X0118539Y0017210D01*
X0118496Y0017114D01*
X0118450Y0017020D01*
X0118400Y0016928D01*
X0118346Y0016837D01*
X0118290Y0016749D01*
X0118230Y0016663D01*
X0118166Y0016579D01*
X0118100Y0016498D01*
X0118030Y0016419D01*
X0117958Y0016344D01*
X0117883Y0016270D01*
X0117805Y0016200D01*
X0117724Y0016133D01*
X0117641Y0016069D01*
X0117556Y0016008D01*
X0117468Y0015950D01*
X0117378Y0015896D01*
X0117286Y0015846D01*
X0117192Y0015798D01*
X0117097Y0015755D01*
X0117000Y0015715D01*
X0116901Y0015679D01*
X0116802Y0015646D01*
X0116701Y0015618D01*
X0116599Y0015593D01*
X0116496Y0015572D01*
X0116392Y0015555D01*
X0116288Y0015542D01*
X0116184Y0015533D01*
X0116079Y0015528D01*
X0115974Y0015527D01*
X0115869Y0015530D01*
X0115764Y0015537D01*
X0115660Y0015548D01*
X0115556Y0015563D01*
X0115453Y0015582D01*
X0115350Y0015605D01*
X0115249Y0015631D01*
X0115148Y0015662D01*
X0115049Y0015696D01*
X0114951Y0015734D01*
X0114855Y0015776D01*
X0114761Y0015821D01*
X0114668Y0015870D01*
X0114577Y0015923D01*
X0114488Y0015979D01*
X0114401Y0016038D01*
X0114317Y0016101D01*
X0114235Y0016166D01*
X0114156Y0016235D01*
X0114079Y0016307D01*
X0114005Y0016381D01*
X0113934Y0016458D01*
X0113866Y0016538D01*
X0113802Y0016621D01*
X0113740Y0016706D01*
X0113682Y0016793D01*
X0113626Y0016882D01*
X0113575Y0016974D01*
X0113527Y0017067D01*
X0113482Y0017162D01*
X0113441Y0017259D01*
X0113404Y0017357D01*
X0113371Y0017456D01*
X0113341Y0017557D01*
X0113316Y0017659D01*
X0113294Y0017761D01*
X0113276Y0017865D01*
X0113262Y0017969D01*
X0113252Y0018073D01*
X0113246Y0018178D01*
X0113244Y0018283D01*
X0113244Y0053717D02*
X0113246Y0053822D01*
X0113252Y0053927D01*
X0113262Y0054031D01*
X0113276Y0054135D01*
X0113294Y0054239D01*
X0113316Y0054341D01*
X0113341Y0054443D01*
X0113371Y0054544D01*
X0113404Y0054643D01*
X0113441Y0054741D01*
X0113482Y0054838D01*
X0113527Y0054933D01*
X0113575Y0055026D01*
X0113626Y0055118D01*
X0113682Y0055207D01*
X0113740Y0055294D01*
X0113802Y0055379D01*
X0113866Y0055462D01*
X0113934Y0055542D01*
X0114005Y0055619D01*
X0114079Y0055693D01*
X0114156Y0055765D01*
X0114235Y0055834D01*
X0114317Y0055899D01*
X0114401Y0055962D01*
X0114488Y0056021D01*
X0114577Y0056077D01*
X0114668Y0056130D01*
X0114761Y0056179D01*
X0114855Y0056224D01*
X0114951Y0056266D01*
X0115049Y0056304D01*
X0115148Y0056338D01*
X0115249Y0056369D01*
X0115350Y0056395D01*
X0115453Y0056418D01*
X0115556Y0056437D01*
X0115660Y0056452D01*
X0115764Y0056463D01*
X0115869Y0056470D01*
X0115974Y0056473D01*
X0116079Y0056472D01*
X0116184Y0056467D01*
X0116288Y0056458D01*
X0116392Y0056445D01*
X0116496Y0056428D01*
X0116599Y0056407D01*
X0116701Y0056382D01*
X0116802Y0056354D01*
X0116901Y0056321D01*
X0117000Y0056285D01*
X0117097Y0056245D01*
X0117192Y0056202D01*
X0117286Y0056154D01*
X0117378Y0056104D01*
X0117468Y0056050D01*
X0117556Y0055992D01*
X0117641Y0055931D01*
X0117724Y0055867D01*
X0117805Y0055800D01*
X0117883Y0055730D01*
X0117958Y0055656D01*
X0118030Y0055581D01*
X0118100Y0055502D01*
X0118166Y0055421D01*
X0118230Y0055337D01*
X0118290Y0055251D01*
X0118346Y0055163D01*
X0118400Y0055072D01*
X0118450Y0054980D01*
X0118496Y0054886D01*
X0118539Y0054790D01*
X0118578Y0054692D01*
X0118613Y0054594D01*
X0118644Y0054493D01*
X0118672Y0054392D01*
X0118696Y0054290D01*
X0118716Y0054187D01*
X0118732Y0054083D01*
X0118744Y0053979D01*
X0118752Y0053874D01*
X0118756Y0053769D01*
X0118756Y0053665D01*
X0118752Y0053560D01*
X0118744Y0053455D01*
X0118732Y0053351D01*
X0118716Y0053247D01*
X0118696Y0053144D01*
X0118672Y0053042D01*
X0118644Y0052941D01*
X0118613Y0052840D01*
X0118578Y0052742D01*
X0118539Y0052644D01*
X0118496Y0052548D01*
X0118450Y0052454D01*
X0118400Y0052362D01*
X0118346Y0052271D01*
X0118290Y0052183D01*
X0118230Y0052097D01*
X0118166Y0052013D01*
X0118100Y0051932D01*
X0118030Y0051853D01*
X0117958Y0051778D01*
X0117883Y0051704D01*
X0117805Y0051634D01*
X0117724Y0051567D01*
X0117641Y0051503D01*
X0117556Y0051442D01*
X0117468Y0051384D01*
X0117378Y0051330D01*
X0117286Y0051280D01*
X0117192Y0051232D01*
X0117097Y0051189D01*
X0117000Y0051149D01*
X0116901Y0051113D01*
X0116802Y0051080D01*
X0116701Y0051052D01*
X0116599Y0051027D01*
X0116496Y0051006D01*
X0116392Y0050989D01*
X0116288Y0050976D01*
X0116184Y0050967D01*
X0116079Y0050962D01*
X0115974Y0050961D01*
X0115869Y0050964D01*
X0115764Y0050971D01*
X0115660Y0050982D01*
X0115556Y0050997D01*
X0115453Y0051016D01*
X0115350Y0051039D01*
X0115249Y0051065D01*
X0115148Y0051096D01*
X0115049Y0051130D01*
X0114951Y0051168D01*
X0114855Y0051210D01*
X0114761Y0051255D01*
X0114668Y0051304D01*
X0114577Y0051357D01*
X0114488Y0051413D01*
X0114401Y0051472D01*
X0114317Y0051535D01*
X0114235Y0051600D01*
X0114156Y0051669D01*
X0114079Y0051741D01*
X0114005Y0051815D01*
X0113934Y0051892D01*
X0113866Y0051972D01*
X0113802Y0052055D01*
X0113740Y0052140D01*
X0113682Y0052227D01*
X0113626Y0052316D01*
X0113575Y0052408D01*
X0113527Y0052501D01*
X0113482Y0052596D01*
X0113441Y0052693D01*
X0113404Y0052791D01*
X0113371Y0052890D01*
X0113341Y0052991D01*
X0113316Y0053093D01*
X0113294Y0053195D01*
X0113276Y0053299D01*
X0113262Y0053403D01*
X0113252Y0053507D01*
X0113246Y0053612D01*
X0113244Y0053717D01*
M02*
